<svg width="24" height="24" viewBox="0 0 24 24" fill="none" xmlns="http://www.w3.org/2000/svg">
<path d="M11.9984 22.7595C10.9084 22.7595 9.82844 22.4395 8.97844 21.8095L4.67844 18.5995C3.53844 17.7495 2.64844 15.9695 2.64844 14.5595V7.11945C2.64844 5.57945 3.77844 3.93945 5.22844 3.39945L10.2184 1.52945C11.2084 1.15945 12.7684 1.15945 13.7584 1.52945L18.7484 3.39945C20.1984 3.93945 21.3284 5.57945 21.3284 7.11945V14.5495C21.3284 15.9695 20.4384 17.7395 19.2984 18.5895L14.9984 21.7995C14.1684 22.4395 13.0884 22.7595 11.9984 22.7595ZM10.7484 2.93945L5.75844 4.80945C4.90844 5.12945 4.15844 6.20945 4.15844 7.12945V14.5595C4.15844 15.5095 4.82844 16.8395 5.57844 17.3995L9.87844 20.6095C11.0284 21.4695 12.9684 21.4695 14.1284 20.6095L18.4284 17.3995C19.1884 16.8295 19.8484 15.5095 19.8484 14.5595V7.11945C19.8484 6.20945 19.0984 5.12945 18.2484 4.79945L13.2584 2.92945C12.5784 2.68945 11.4184 2.68945 10.7484 2.93945Z" fill="#0C0507"/>
<path d="M10.6583 14.2291C10.4683 14.2291 10.2783 14.1591 10.1283 14.0091L8.51828 12.3991C8.22828 12.1091 8.22828 11.6291 8.51828 11.3391C8.80828 11.0491 9.28828 11.0491 9.57828 11.3391L10.6583 12.4191L14.4283 8.64914C14.7183 8.35914 15.1983 8.35914 15.4883 8.64914C15.7783 8.93914 15.7783 9.41914 15.4883 9.70914L11.1883 14.0091C11.0383 14.1591 10.8483 14.2291 10.6583 14.2291Z" fill="#0C0507"/>
</svg>
