<svg width="24" height="24" viewBox="0 0 24 24" fill="none" xmlns="http://www.w3.org/2000/svg">
<path d="M21.002 5.25H3.00195C2.59195 5.25 2.25195 4.91 2.25195 4.5C2.25195 4.09 2.59195 3.75 3.00195 3.75H21.002C21.412 3.75 21.752 4.09 21.752 4.5C21.752 4.91 21.412 5.25 21.002 5.25Z" fill="#0C0507"/>
<path d="M12.472 10.25H3.00195C2.59195 10.25 2.25195 9.91 2.25195 9.5C2.25195 9.09 2.59195 8.75 3.00195 8.75H12.472C12.882 8.75 13.222 9.09 13.222 9.5C13.222 9.91 12.892 10.25 12.472 10.25Z" fill="#0C0507"/>
<path d="M21.002 15.25H3.00195C2.59195 15.25 2.25195 14.91 2.25195 14.5C2.25195 14.09 2.59195 13.75 3.00195 13.75H21.002C21.412 13.75 21.752 14.09 21.752 14.5C21.752 14.91 21.412 15.25 21.002 15.25Z" fill="#0C0507"/>
<path d="M12.472 20.25H3.00195C2.59195 20.25 2.25195 19.91 2.25195 19.5C2.25195 19.09 2.59195 18.75 3.00195 18.75H12.472C12.882 18.75 13.222 19.09 13.222 19.5C13.222 19.91 12.892 20.25 12.472 20.25Z" fill="#0C0507"/>
</svg>
