<svg width="24" height="24" viewBox="0 0 24 24" fill="none" xmlns="http://www.w3.org/2000/svg">
<path d="M14.2209 21.6303C13.0409 21.6303 11.3709 20.8003 10.0509 16.8303L9.33086 14.6703L7.17086 13.9503C3.21086 12.6303 2.38086 10.9603 2.38086 9.78031C2.38086 8.61031 3.21086 6.93032 7.17086 5.60032L15.6609 2.77032C17.7809 2.06032 19.5509 2.27032 20.6409 3.35032C21.7309 4.43032 21.9409 6.21032 21.2309 8.33032L18.4009 16.8203C17.0709 20.8003 15.4009 21.6303 14.2209 21.6303ZM7.64086 7.03032C4.86086 7.96032 3.87086 9.06031 3.87086 9.78031C3.87086 10.5003 4.86086 11.6003 7.64086 12.5203L10.1609 13.3603C10.3809 13.4303 10.5609 13.6103 10.6309 13.8303L11.4709 16.3503C12.3909 19.1303 13.5009 20.1203 14.2209 20.1203C14.9409 20.1203 16.0409 19.1303 16.9709 16.3503L19.8009 7.86032C20.3109 6.32032 20.2209 5.06032 19.5709 4.41032C18.9209 3.76032 17.6609 3.68032 16.1309 4.19032L7.64086 7.03032Z" fill="#0C0507"/>
</svg>
